<?xml version="1.0" encoding="UTF-8"?>
<svg width="19px" height="19px" viewBox="0 0 19 19" version="1.1" xmlns="http://www.w3.org/2000/svg" xmlns:xlink="http://www.w3.org/1999/xlink">
    <!-- Generator: Sketch 60.1 (88133) - https://sketch.com -->
    <title>linkedin-in</title>
    <desc>Created with Sketch.</desc>
    <g id="Page-1" stroke="none" stroke-width="1" fill="none" fill-rule="evenodd">
        <g id="linkedin-in" fill="#000000" fill-rule="nonzero">
            <path d="M4.25294643,19 L0.313839286,19 L0.313839286,6.31495536 L4.25294643,6.31495536 L4.25294643,19 Z M2.28127232,4.58459821 C1.02167411,4.58459821 0,3.54129464 0,2.28169643 C0,1.02178453 1.02136042,0.000424141136 2.28127232,0.000424141136 C3.54118422,0.000424141136 4.56254464,1.02178453 4.56254464,2.28169643 C4.56254464,3.54129464 3.54044643,4.58459821 2.28127232,4.58459821 Z M18.9957589,19 L15.0651339,19 L15.0651339,12.825 C15.0651339,11.3533482 15.0354464,9.46607143 13.0171205,9.46607143 C10.9691071,9.46607143 10.6552679,11.0649554 10.6552679,12.7189732 L10.6552679,19 L6.72040179,19 L6.72040179,6.31495536 L10.4983482,6.31495536 L10.4983482,8.0453125 L10.5534821,8.0453125 C11.079375,7.04866071 12.3639955,5.996875 14.2805357,5.996875 C18.2671429,5.996875 19,8.62209821 19,12.0319196 L19,19 L18.9957589,19 Z" id="Shape"></path>
        </g>
    </g>
</svg>