<?xml version="1.0" encoding="UTF-8"?>
<svg width="21px" height="18px" viewBox="0 0 21 18" version="1.1" xmlns="http://www.w3.org/2000/svg" xmlns:xlink="http://www.w3.org/1999/xlink">
    <!-- Generator: Sketch 60.1 (88133) - https://sketch.com -->
    <title>twitter</title>
    <desc>Created with Sketch.</desc>
    <g id="Page-1" stroke="none" stroke-width="1" fill="none" fill-rule="evenodd">
        <g id="twitter" fill="#000000" fill-rule="nonzero">
            <path d="M18.8413477,4.25397656 C18.8546777,4.44051563 18.8546777,4.6270957 18.8546777,4.81363477 C18.8546777,10.5033223 14.524125,17.0591777 6.60913477,17.0591777 C4.17067383,17.0591777 1.90546289,16.3529297 0,15.1270957 C0.346458984,15.1670449 0.679546875,15.180375 1.03933594,15.180375 C3.05135742,15.180375 4.90354102,14.5008281 6.38260547,13.3415625 C4.49047266,13.3015723 2.90480859,12.0623672 2.35848047,10.3567734 C2.625,10.3967227 2.89147852,10.4233828 3.17132813,10.4233828 C3.55773633,10.4233828 3.94418555,10.3700625 4.30393359,10.276834 C2.33186133,9.87705469 0.852755859,8.1448418 0.852755859,6.05283984 L0.852755859,5.99956055 C1.42570313,6.31935938 2.09200195,6.51922852 2.79816797,6.54584766 C1.63890234,5.77299023 0.879416016,4.4538457 0.879416016,2.96145117 C0.879416016,2.16197461 1.09257422,1.42910742 1.46569336,0.789509766 C3.58435547,3.40117969 6.76901367,5.10673242 10.3400391,5.2933125 C10.2734297,4.97351367 10.2334395,4.64042578 10.2334395,4.30729688 C10.2334395,1.93544531 12.1522324,0.00336328125 14.537373,0.00336328125 C15.7765781,0.00336328125 16.8958535,0.52303125 17.682041,1.36249805 C18.6547266,1.17595898 19.5874629,0.816169922 20.4136406,0.323162109 C20.0938008,1.32254883 19.4142539,2.16201562 18.5215078,2.69497266 C19.3876348,2.60174414 20.2271016,2.36184375 20.999918,2.02875586 C20.4137227,2.88151172 19.6808145,3.64099805 18.8413477,4.25397656 Z" id="Path"></path>
        </g>
    </g>
</svg>