<?xml version="1.0" encoding="UTF-8"?>
<svg width="86px" height="45px" viewBox="0 0 86 45" version="1.1" xmlns="http://www.w3.org/2000/svg" xmlns:xlink="http://www.w3.org/1999/xlink">
    <title>U.S. flag</title>
    <g id="Sub-pages" stroke="none" stroke-width="1" fill="none" fill-rule="evenodd">
        <g id="Desktop---Services" transform="translate(-766.000000, -2979.000000)">
            <g id="Footer" transform="translate(0.000000, 2935.000000)">
                <g id="U.S.-flag" transform="translate(766.000000, 44.000000)">
                    <g id="Group-60">
                        <polygon id="Fill-1" fill="#FFFFFF" points="0 45 85.3448276 45 85.3448276 0 0 0"></polygon>
                        <polygon id="Fill-2" fill="#B22234" points="0 3.10344828 85.3448276 3.10344828 85.3448276 0 0 0"></polygon>
                        <polygon id="Fill-3" fill="#B22234" points="0 10.0862069 85.3448276 10.0862069 85.3448276 6.98275862 0 6.98275862"></polygon>
                        <polygon id="Fill-4" fill="#B22234" points="0 17.0689655 85.3448276 17.0689655 85.3448276 13.9655172 0 13.9655172"></polygon>
                        <polygon id="Fill-5" fill="#B22234" points="0 24.0517241 85.3448276 24.0517241 85.3448276 20.9482759 0 20.9482759"></polygon>
                        <polygon id="Fill-6" fill="#B22234" points="0 31.0344828 85.3448276 31.0344828 85.3448276 27.9310345 0 27.9310345"></polygon>
                        <polygon id="Fill-7" fill="#B22234" points="0 38.0172414 85.3448276 38.0172414 85.3448276 34.9137931 0 34.9137931"></polygon>
                        <polygon id="Fill-8" fill="#B22234" points="0 45 85.3448276 45 85.3448276 41.8965517 0 41.8965517"></polygon>
                        <polygon id="Fill-9" fill="#3C3B6E" points="0 24.0517241 34.137931 24.0517241 34.137931 0 0 0"></polygon>
                        <polygon id="Fill-10" fill="#FFFFFF" points="1.55172414 1.66504339 2.27088537 2.21426696 1.99635601 3.10344828 2.71551724 2.55396015 3.43467847 3.10344828 3.16014911 2.21426696 3.87931034 1.66504339 2.99029823 1.66504339 2.71551724 0.775862069 2.44073625 1.66504339"></polygon>
                        <polygon id="Fill-11" fill="#FFFFFF" points="7.75862069 1.66504339 8.47778192 2.21426696 8.20325256 3.10344828 8.92241379 2.55396015 9.64157502 3.10344828 9.36704567 2.21426696 10.0862069 1.66504339 9.19719478 1.66504339 8.92241379 0.775862069 8.64763281 1.66504339"></polygon>
                        <polygon id="Fill-12" fill="#FFFFFF" points="13.1896552 1.66504339 13.9088164 2.21426696 13.634287 3.10344828 14.3534483 2.55396015 15.0728611 3.10344828 14.7980801 2.21426696 15.5172414 1.66504339 14.6282293 1.66504339 14.3534483 0.775862069 14.0786673 1.66504339"></polygon>
                        <polygon id="Fill-13" fill="#FFFFFF" points="18.6206897 1.66504339 19.3398509 2.21426696 19.0653215 3.10344828 19.7844828 2.55396015 20.503644 3.10344828 20.2291146 2.21426696 20.9482759 1.66504339 20.0592637 1.66504339 19.7844828 0.775862069 19.5097018 1.66504339"></polygon>
                        <polygon id="Fill-14" fill="#FFFFFF" points="24.0517241 1.66504339 24.7708854 2.21426696 24.496356 3.10344828 25.2155172 2.55396015 25.9349301 3.10344828 25.6601491 2.21426696 26.3793103 1.66504339 25.4902982 1.66504339 25.2155172 0.775862069 24.9407363 1.66504339"></polygon>
                        <polygon id="Fill-15" fill="#FFFFFF" points="30.2586207 1.66504339 30.9777819 2.21426696 30.7032526 3.10344828 31.4224138 2.55396015 32.1418267 3.10344828 31.8670457 2.21426696 32.5862069 1.66504339 31.6971948 1.66504339 31.4224138 0.775862069 31.1476328 1.66504339"></polygon>
                        <polygon id="Fill-16" fill="#FFFFFF" points="4.65517241 4.76849166 5.37433364 5.31771523 5.09980429 6.20689655 5.81896552 5.65740842 6.53812675 6.20689655 6.26359739 5.31771523 6.98275862 4.76849166 6.09374651 4.76849166 5.81896552 3.87931034 5.54418453 4.76849166"></polygon>
                        <polygon id="Fill-17" fill="#FFFFFF" points="10.0862069 4.76849166 10.8053681 5.31771523 10.5308388 6.20689655 11.25 5.65740842 11.9694129 6.20689655 11.6946319 5.31771523 12.4137931 4.76849166 11.524781 4.76849166 11.25 3.87931034 10.975219 4.76849166"></polygon>
                        <polygon id="Fill-18" fill="#FFFFFF" points="16.2931034 4.76849166 17.0122647 5.31771523 16.7377353 6.20689655 17.4568966 5.65740842 18.1760578 6.20689655 17.9015284 5.31771523 18.6206897 4.76849166 17.7316775 4.76849166 17.4568966 3.87931034 17.1821156 4.76849166"></polygon>
                        <polygon id="Fill-19" fill="#FFFFFF" points="21.7241379 4.76849166 22.4432992 5.31771523 22.1687698 6.20689655 22.887931 5.65740842 23.6070923 6.20689655 23.3325629 5.31771523 24.0517241 4.76849166 23.162712 4.76849166 22.887931 3.87931034 22.61315 4.76849166"></polygon>
                        <polygon id="Fill-20" fill="#FFFFFF" points="27.1551724 4.76849166 27.8743336 5.31771523 27.5998043 6.20689655 28.3189655 5.65740842 29.0381267 6.20689655 28.7635974 5.31771523 29.4827586 4.76849166 28.5937465 4.76849166 28.3189655 3.87931034 28.0441845 4.76849166"></polygon>
                        <polygon id="Fill-21" fill="#FFFFFF" points="1.55172414 7.09591436 2.27088537 7.64520036 1.99635601 8.53448276 2.71551724 7.98493217 3.43467847 8.53448276 3.16014911 7.64520036 3.87931034 7.09591436 2.99029823 7.09591436 2.71551724 6.20689655 2.44073625 7.09591436"></polygon>
                        <polygon id="Fill-22" fill="#FFFFFF" points="7.75862069 7.09591436 8.47778192 7.64520036 8.20325256 8.53448276 8.92241379 7.98493217 9.64157502 8.53448276 9.36704567 7.64520036 10.0862069 7.09591436 9.19719478 7.09591436 8.92241379 6.20689655 8.64763281 7.09591436"></polygon>
                        <polygon id="Fill-23" fill="#FFFFFF" points="13.1896552 7.09591436 13.9088164 7.64520036 13.634287 8.53448276 14.3534483 7.98493217 15.0728611 8.53448276 14.7980801 7.64520036 15.5172414 7.09591436 14.6282293 7.09591436 14.3534483 6.20689655 14.0786673 7.09591436"></polygon>
                        <polygon id="Fill-24" fill="#FFFFFF" points="18.6206897 7.09591436 19.3398509 7.64520036 19.0653215 8.53448276 19.7844828 7.98493217 20.503644 8.53448276 20.2291146 7.64520036 20.9482759 7.09591436 20.0592637 7.09591436 19.7844828 6.20689655 19.5097018 7.09591436"></polygon>
                        <polygon id="Fill-25" fill="#FFFFFF" points="24.0517241 7.09591436 24.7708854 7.64520036 24.496356 8.53448276 25.2155172 7.98493217 25.9349301 8.53448276 25.6601491 7.64520036 26.3793103 7.09591436 25.4902982 7.09591436 25.2155172 6.20689655 24.9407363 7.09591436"></polygon>
                        <polygon id="Fill-26" fill="#FFFFFF" points="30.2586207 7.09591436 30.9777819 7.64520036 30.7032526 8.53448276 31.4224138 7.98493217 32.1418267 8.53448276 31.8670457 7.64520036 32.5862069 7.09591436 31.6971948 7.09591436 31.4224138 6.20689655 31.1476328 7.09591436"></polygon>
                        <polygon id="Fill-27" fill="#FFFFFF" points="4.65517241 9.42350057 5.37433364 9.97305116 5.09980429 10.862069 5.81896552 10.312783 6.53837838 10.862069 6.26359739 9.97305116 6.98275862 9.42350057 6.09374651 9.42350057 5.81896552 8.53448276 5.54418453 9.42350057"></polygon>
                        <polygon id="Fill-28" fill="#FFFFFF" points="10.0862069 9.42350057 10.8053681 9.97305116 10.5308388 10.862069 11.25 10.312783 11.9691612 10.862069 11.6946319 9.97305116 12.4137931 9.42350057 11.524781 9.42350057 11.25 8.53448276 10.975219 9.42350057"></polygon>
                        <polygon id="Fill-29" fill="#FFFFFF" points="16.2931034 9.42350057 17.0122647 9.97305116 16.7377353 10.862069 17.4568966 10.312783 18.1763094 10.862069 17.9015284 9.97305116 18.6206897 9.42350057 17.7316775 9.42350057 17.4568966 8.53448276 17.1821156 9.42350057"></polygon>
                        <polygon id="Fill-30" fill="#FFFFFF" points="21.7241379 9.42350057 22.4432992 9.97305116 22.1687698 10.862069 22.887931 10.312783 23.6073439 10.862069 23.3325629 9.97305116 24.0517241 9.42350057 23.162712 9.42350057 22.887931 8.53448276 22.61315 9.42350057"></polygon>
                        <polygon id="Fill-31" fill="#FFFFFF" points="27.1551724 9.42350057 27.8743336 9.97305116 27.5998043 10.862069 28.3189655 10.312783 29.0381267 10.862069 28.7635974 9.97305116 29.4827586 9.42350057 28.5937465 9.42350057 28.3189655 8.53448276 28.0441845 9.42350057"></polygon>
                        <polygon id="Fill-32" fill="#FFFFFF" points="1.55172414 11.7510868 2.27088537 12.3006374 1.99635601 13.1896552 2.71551724 12.6401046 3.43467847 13.1896552 3.16014911 12.3006374 3.87931034 11.7510868 2.99029823 11.7510868 2.71551724 10.862069 2.44073625 11.7510868"></polygon>
                        <polygon id="Fill-33" fill="#FFFFFF" points="7.75862069 11.7510868 8.47778192 12.3006374 8.20325256 13.1896552 8.92241379 12.6401046 9.64182665 13.1896552 9.36704567 12.3006374 10.0862069 11.7510868 9.19719478 11.7510868 8.92241379 10.862069 8.64763281 11.7510868"></polygon>
                        <polygon id="Fill-34" fill="#FFFFFF" points="13.1896552 11.7510868 13.9088164 12.3006374 13.634287 13.1896552 14.3534483 12.6401046 15.0726095 13.1896552 14.7980801 12.3006374 15.5172414 11.7510868 14.6282293 11.7510868 14.3534483 10.862069 14.0786673 11.7510868"></polygon>
                        <polygon id="Fill-35" fill="#FFFFFF" points="18.6206897 11.7510868 19.3398509 12.3006374 19.0653215 13.1896552 19.7844828 12.6401046 20.5038956 13.1896552 20.2291146 12.3006374 20.9482759 11.7510868 20.0592637 11.7510868 19.7844828 10.862069 19.5097018 11.7510868"></polygon>
                        <polygon id="Fill-36" fill="#FFFFFF" points="24.8275862 11.7510868 25.5467474 12.3006374 25.2722181 13.1896552 25.9913793 12.6401046 26.7107922 13.1896552 26.4360112 12.3006374 27.1551724 11.7510868 26.2661603 11.7510868 25.9913793 10.862069 25.7165983 11.7510868"></polygon>
                        <polygon id="Fill-37" fill="#FFFFFF" points="30.2586207 11.7510868 30.9780336 12.3006374 30.7032526 13.1896552 31.4224138 12.6401046 32.1418267 13.1896552 31.8670457 12.3006374 32.5862069 11.7510868 31.6971948 11.7510868 31.4224138 10.862069 31.1478844 11.7510868"></polygon>
                        <polygon id="Fill-38" fill="#FFFFFF" points="1.55172414 16.4062592 2.27088537 16.9558098 1.99635601 17.8448276 2.71551724 17.295277 3.43467847 17.8448276 3.16014911 16.9558098 3.87931034 16.4062592 2.99029823 16.4062592 2.71551724 15.5172414 2.44073625 16.4062592"></polygon>
                        <polygon id="Fill-39" fill="#FFFFFF" points="7.75862069 16.4062592 8.47778192 16.9558098 8.20325256 17.8448276 8.92241379 17.295277 9.64157502 17.8448276 9.36704567 16.9558098 10.0862069 16.4062592 9.19719478 16.4062592 8.92241379 15.5172414 8.64763281 16.4062592"></polygon>
                        <polygon id="Fill-40" fill="#FFFFFF" points="13.1896552 16.4062592 13.9088164 16.9558098 13.634287 17.8448276 14.3534483 17.295277 15.0728611 17.8448276 14.7980801 16.9558098 15.5172414 16.4062592 14.6282293 16.4062592 14.3534483 15.5172414 14.0786673 16.4062592"></polygon>
                        <polygon id="Fill-41" fill="#FFFFFF" points="18.6206897 16.4062592 19.3398509 16.9558098 19.0653215 17.8448276 19.7844828 17.295277 20.503644 17.8448276 20.2291146 16.9558098 20.9482759 16.4062592 20.0592637 16.4062592 19.7844828 15.5172414 19.5097018 16.4062592"></polygon>
                        <polygon id="Fill-42" fill="#FFFFFF" points="24.8275862 16.4062592 25.5467474 16.9558098 25.2722181 17.8448276 25.9913793 17.295277 26.7107922 17.8448276 26.4360112 16.9558098 27.1551724 16.4062592 26.2661603 16.4062592 25.9913793 15.5172414 25.7165983 16.4062592"></polygon>
                        <polygon id="Fill-43" fill="#FFFFFF" points="30.2586207 16.4062592 30.9777819 16.9558098 30.7032526 17.8448276 31.4224138 17.295277 32.1418267 17.8448276 31.8670457 16.9558098 32.5862069 16.4062592 31.6971948 16.4062592 31.4224138 15.5172414 31.1476328 16.4062592"></polygon>
                        <polygon id="Fill-44" fill="#FFFFFF" points="1.55172414 21.0614316 2.27088537 21.6109822 1.99635601 22.5 2.71551724 21.950714 3.43467847 22.5 3.16014911 21.6109822 3.87931034 21.0614316 2.99029823 21.0614316 2.71551724 20.1724138 2.44073625 21.0614316"></polygon>
                        <polygon id="Fill-45" fill="#FFFFFF" points="7.75862069 21.0614316 8.47778192 21.6109822 8.20325256 22.5 8.92241379 21.950714 9.64182665 22.5 9.36704567 21.6109822 10.0862069 21.0614316 9.19719478 21.0614316 8.92241379 20.1724138 8.64763281 21.0614316"></polygon>
                        <polygon id="Fill-46" fill="#FFFFFF" points="13.1896552 21.0614316 13.9088164 21.6109822 13.634287 22.5 14.3534483 21.950714 15.0726095 22.5 14.7980801 21.6109822 15.5172414 21.0614316 14.6282293 21.0614316 14.3534483 20.1724138 14.0786673 21.0614316"></polygon>
                        <polygon id="Fill-47" fill="#FFFFFF" points="18.6206897 21.0614316 19.3398509 21.6109822 19.0653215 22.5 19.7844828 21.950714 20.5038956 22.5 20.2291146 21.6109822 20.9482759 21.0614316 20.0592637 21.0614316 19.7844828 20.1724138 19.5097018 21.0614316"></polygon>
                        <polygon id="Fill-48" fill="#FFFFFF" points="24.8275862 21.0614316 25.5467474 21.6109822 25.2722181 22.5 25.9913793 21.950714 26.7107922 22.5 26.4360112 21.6109822 27.1551724 21.0614316 26.2661603 21.0614316 25.9913793 20.1724138 25.7165983 21.0614316"></polygon>
                        <polygon id="Fill-49" fill="#FFFFFF" points="30.2586207 21.0614316 30.9777819 21.6109822 30.7032526 22.5 31.4224138 21.950714 32.141575 22.5 31.8670457 21.6109822 32.5862069 21.0614316 31.6971948 21.0614316 31.4224138 20.1724138 31.1476328 21.0614316"></polygon>
                        <polygon id="Fill-50" fill="#FFFFFF" points="4.65517241 14.078673 5.37433364 14.627959 5.09980429 15.5172414 5.81896552 14.9676908 6.53837838 15.5172414 6.26359739 14.627959 6.98275862 14.078673 6.09374651 14.078673 5.81896552 13.1896552 5.54418453 14.078673"></polygon>
                        <polygon id="Fill-51" fill="#FFFFFF" points="10.0862069 14.078673 10.8053681 14.627959 10.5308388 15.5172414 11.25 14.9676908 11.9691612 15.5172414 11.6946319 14.627959 12.4137931 14.078673 11.524781 14.078673 11.25 13.1896552 10.975219 14.078673"></polygon>
                        <polygon id="Fill-52" fill="#FFFFFF" points="16.2931034 14.078673 17.0122647 14.627959 16.7377353 15.5172414 17.4568966 14.9676908 18.1763094 15.5172414 17.9015284 14.627959 18.6206897 14.078673 17.7316775 14.078673 17.4568966 13.1896552 17.1821156 14.078673"></polygon>
                        <polygon id="Fill-53" fill="#FFFFFF" points="21.7241379 14.078673 22.4432992 14.627959 22.1687698 15.5172414 22.887931 14.9676908 23.6073439 15.5172414 23.3325629 14.627959 24.0517241 14.078673 23.162712 14.078673 22.887931 13.1896552 22.61315 14.078673"></polygon>
                        <polygon id="Fill-54" fill="#FFFFFF" points="27.1551724 14.078673 27.8743336 14.627959 27.5998043 15.5172414 28.3189655 14.9676908 29.0381267 15.5172414 28.7635974 14.627959 29.4827586 14.078673 28.5937465 14.078673 28.3189655 13.1896552 28.0441845 14.078673"></polygon>
                        <polygon id="Fill-55" fill="#FFFFFF" points="4.65517241 18.7338454 5.37433364 19.283396 5.09980429 20.1724138 5.81896552 19.6228632 6.53812675 20.1724138 6.26359739 19.283396 6.98275862 18.7338454 6.09374651 18.7338454 5.81896552 17.8448276 5.54418453 18.7338454"></polygon>
                        <polygon id="Fill-56" fill="#FFFFFF" points="10.0862069 18.7338454 10.8053681 19.283396 10.5308388 20.1724138 11.25 19.6228632 11.9694129 20.1724138 11.6946319 19.283396 12.4137931 18.7338454 11.524781 18.7338454 11.25 17.8448276 10.975219 18.7338454"></polygon>
                        <polygon id="Fill-57" fill="#FFFFFF" points="16.2931034 18.7338454 17.0122647 19.283396 16.7377353 20.1724138 17.4568966 19.6228632 18.1760578 20.1724138 17.9015284 19.283396 18.6206897 18.7338454 17.7316775 18.7338454 17.4568966 17.8448276 17.1821156 18.7338454"></polygon>
                        <polygon id="Fill-58" fill="#FFFFFF" points="21.7241379 18.7338454 22.4432992 19.283396 22.1687698 20.1724138 22.887931 19.6228632 23.6070923 20.1724138 23.3325629 19.283396 24.0517241 18.7338454 23.162712 18.7338454 22.887931 17.8448276 22.61315 18.7338454"></polygon>
                        <polygon id="Fill-59" fill="#FFFFFF" points="27.1551724 18.7338454 27.8743336 19.283396 27.5998043 20.1724138 28.3189655 19.6228632 29.0381267 20.1724138 28.7635974 19.283396 29.4827586 18.7338454 28.5937465 18.7338454 28.3189655 17.8448276 28.0441845 18.7338454"></polygon>
                    </g>
                </g>
            </g>
        </g>
    </g>
</svg>